<svg width="100pt" height="100pt" viewBox="0 0 100 100" xmlns="http://www.w3.org/2000/svg"><path d="M10.066 16.867v66.266h79.867V16.867zm27.977 52.531V30.601l29.09 17.633zM10.066 6.668h5.91v6.8h-5.91zm9.246 0h5.91v6.8h-5.91zm9.243 0h5.91v6.8h-5.91zm9.246 0h5.91v6.8h-5.91zm9.242 0h5.91v6.8h-5.91zm9.246 0h5.91v6.8h-5.91zm9.246 0h5.91v6.8h-5.91zm9.242 0h5.91v6.8h-5.91zm9.258 0h5.91v6.8h-5.91zM10.066 86.535h5.91v6.8h-5.91zm9.246 0h5.91v6.8h-5.91zm9.243 0h5.91v6.8h-5.91zm9.246 0h5.91v6.8h-5.91zm9.242 0h5.91v6.8h-5.91zm9.246 0h5.91v6.8h-5.91zm9.246 0h5.91v6.8h-5.91zm9.242 0h5.91v6.8h-5.91zm9.258 0h5.91v6.8h-5.91z"/></svg>